<?xml version="1.0" encoding="utf-8"?>
<!-- Generator: Adobe Illustrator 26.2.1, SVG Export Plug-In . SVG Version: 6.00 Build 0)  -->
<svg version="1.1" id="Capa_1" xmlns="http://www.w3.org/2000/svg" xmlns:xlink="http://www.w3.org/1999/xlink" x="0px" y="0px"
	 viewBox="0 0 31.5 31.5" style="enable-background:new 0 0 31.5 31.5;" xml:space="preserve">
<style type="text/css">
	.st0{fill:#1E201D;}
</style>
<path class="st0" d="M3.8,16.9c2.7,2.7,5.4,5.4,8,8c0.4,0.4,0.4,1.2,0,1.6c-0.4,0.4-1.1,0.4-1.6,0l-10-10c-0.4-0.4-0.4-1.1,0-1.6
	l10-10c0.4-0.4,1.1-0.4,1.6,0c0.4,0.4,0.4,1.1,0,1.6c-2.7,2.7-5.4,5.4-8,8c-0.1,0.1-0.5,0.4-0.5,1C3.2,16.4,3.8,16.8,3.8,16.9z"/>
</svg>
